<?xml version="1.0" standalone="no"?>
<!DOCTYPE svg PUBLIC "-//W3C//DTD SVG 20010904//EN"
 "http://www.w3.org/TR/2001/REC-SVG-20010904/DTD/svg10.dtd">
<svg version="1.0" xmlns="http://www.w3.org/2000/svg"
 width="434.000000pt" height="396.000000pt" viewBox="0 0 434.000000 396.000000"
 preserveAspectRatio="xMidYMid meet">

<g transform="translate(0.000000,396.000000) scale(0.100000,-0.100000)"
fill="#000000" stroke="none">
<path d="M1955 3706 c-19 -13 -18 -22 23 -327 24 -173 46 -317 50 -321 4 -3
27 -8 52 -10 l45 -3 7 55 c17 132 11 582 -9 600 -4 4 -40 10 -79 14 -52 4 -75
2 -89 -8z m127 -71 c13 -42 21 -408 11 -478 -9 -68 -25 -78 -35 -22 -11 57
-68 493 -68 516 0 17 6 20 42 17 37 -3 43 -7 50 -33z"/>
<path d="M2322 3511 c-16 -10 -27 -98 -37 -281 -4 -69 -8 -137 -10 -152 -3
-35 9 -44 67 -53 46 -7 47 -6 54 21 4 16 31 110 60 209 60 206 64 187 -43 236
-69 32 -72 33 -91 20z m88 -71 c22 -11 40 -26 40 -33 0 -8 -11 -45 -23 -83
-13 -38 -34 -111 -47 -161 -22 -87 -38 -111 -55 -83 -6 10 9 263 21 343 7 43
11 44 64 17z"/>
<path d="M2802 3438 c-16 -16 -15 -55 2 -61 23 -9 48 16 44 43 -3 28 -27 37
-46 18z"/>
<path d="M1635 3425 c-5 -2 -22 -6 -37 -9 -16 -4 -28 -13 -28 -22 0 -19 194
-359 222 -391 19 -20 22 -20 56 -6 53 21 66 36 53 59 -17 29 -141 347 -141
361 0 9 -17 13 -57 12 -32 0 -62 -2 -68 -4z m148 -202 c44 -111 63 -171 57
-177 -7 -7 -15 -5 -23 4 -15 16 -187 314 -187 323 0 6 32 13 66 16 17 1 30
-23 87 -166z"/>
<path d="M1265 3339 c-4 -5 -4 -21 -1 -35 5 -17 13 -24 31 -24 21 0 25 5 25
29 0 35 -39 57 -55 30z"/>
<path d="M2716 3291 c-21 -23 -18 -60 7 -75 28 -18 52 4 52 50 0 32 -4 40 -21
42 -11 2 -28 -6 -38 -17z"/>
<path d="M3026 3208 c-52 -81 -216 -375 -216 -389 0 -13 68 -69 84 -69 2 0 55
64 117 143 61 78 123 152 136 165 22 22 22 24 7 54 -18 34 -92 118 -105 118
-5 0 -15 -10 -23 -22z m51 -65 c36 -47 37 -45 -69 -179 -125 -160 -120 -155
-136 -145 -10 6 11 50 83 174 53 92 99 167 102 167 3 0 12 -8 20 -17z"/>
<path d="M1355 3206 c-24 -18 -15 -57 17 -76 25 -13 29 -13 44 2 36 36 -20
104 -61 74z"/>
<path d="M2643 3134 c-20 -9 -50 -66 -58 -111 -5 -35 -3 -45 15 -63 12 -12 28
-20 37 -18 48 9 85 145 48 181 -17 18 -22 19 -42 11z"/>
<path d="M3240 2868 c-135 -104 -249 -193 -254 -198 -10 -10 10 -74 27 -89 25
-20 281 111 462 238 44 31 83 57 88 57 4 1 12 2 17 3 17 2 11 23 -24 97 -20
43 -41 73 -53 76 -13 4 -90 -50 -263 -184z m275 92 c22 -48 33 -35 -124 -140
-127 -86 -340 -195 -352 -183 -6 6 81 79 218 186 126 97 231 177 234 177 3 0
14 -18 24 -40z"/>
<path d="M1453 3009 c9 -72 89 -135 137 -109 34 18 25 58 -24 106 -36 36 -50
44 -81 44 l-38 0 6 -41z"/>
<path d="M1055 3004 c-58 -39 -95 -75 -95 -94 0 -16 254 -199 348 -250 l42
-24 30 35 c16 19 29 40 30 47 0 19 -282 312 -300 312 -9 0 -33 -12 -55 -26z
m299 -296 c-3 -5 -11 -8 -18 -8 -13 0 -301 194 -311 210 -3 5 13 23 37 40 l43
31 127 -133 c69 -73 124 -136 122 -140z"/>
<path d="M2020 2909 c-211 -32 -430 -168 -556 -345 -54 -76 -116 -206 -139
-294 -22 -86 -31 -273 -16 -353 64 -336 268 -570 577 -659 70 -21 100 -23 269
-22 172 0 199 3 286 26 355 96 549 307 589 641 31 260 -65 520 -269 731 -42
43 -104 98 -138 122 -76 55 -208 117 -294 138 -84 21 -226 28 -309 15z"/>
<path d="M644 2769 c-36 -55 -45 -75 -37 -87 5 -9 90 -49 189 -89 98 -41 227
-94 286 -118 59 -25 113 -45 120 -45 14 0 58 59 58 76 0 26 -228 170 -403 254
-70 34 -130 66 -133 71 -13 22 -36 4 -80 -62z m227 -67 c148 -75 329 -190 329
-209 0 -7 -2 -13 -4 -13 -2 0 -109 43 -237 95 -129 53 -246 101 -262 107 -15
6 -30 15 -33 19 -8 14 35 69 55 69 9 0 78 -31 152 -68z"/>
<path d="M3293 2540 c-112 -54 -203 -102 -203 -107 0 -16 27 -84 37 -94 6 -6
46 0 119 20 60 16 153 39 208 51 l98 23 -4 88 c-4 84 -16 119 -42 119 -6 0
-102 -45 -213 -100z m207 16 c0 -13 3 -37 6 -54 5 -27 3 -32 -17 -36 -13 -3
-87 -21 -164 -40 -77 -19 -147 -36 -154 -38 -8 -2 -17 5 -19 15 -3 14 29 33
160 97 90 43 169 79 176 79 6 1 12 -10 12 -23z"/>
<path d="M714 2327 c-14 -31 -28 -72 -31 -92 l-6 -35 224 -1 c123 -1 231 0
239 1 22 3 30 20 30 70 l0 45 -193 28 c-105 15 -202 30 -215 33 -19 6 -25 -1
-48 -49z m409 -60 c-2 -4 -3 -11 -3 -17 0 -6 -72 -10 -195 -10 -107 0 -195 2
-195 4 0 7 28 71 34 77 8 7 362 -45 359 -54z"/>
<path d="M3433 2179 c-19 -19 -16 -57 6 -69 38 -20 92 25 72 59 -11 17 -64 24
-78 10z"/>
<path d="M3623 2179 c-30 -11 -30 -45 -1 -52 26 -7 48 8 48 33 0 22 -18 30
-47 19z"/>
<path d="M3190 2169 c-59 -24 -80 -77 -39 -100 50 -26 169 24 169 72 0 35 -72
51 -130 28z"/>
<path d="M995 2006 c-40 -17 -57 -40 -53 -68 3 -21 9 -23 61 -26 45 -2 65 2
92 18 37 23 46 55 23 78 -16 16 -85 15 -123 -2z"/>
<path d="M772 1973 c-22 -9 -35 -43 -21 -59 14 -17 60 -19 77 -2 37 37 -5 82
-56 61z"/>
<path d="M594 1946 c-11 -28 4 -48 33 -44 22 2 28 8 28 28 0 20 -6 26 -28 28
-18 2 -29 -2 -33 -12z"/>
<path d="M3545 1929 c-194 -20 -351 -42 -360 -50 -14 -14 -17 -90 -4 -106 7
-7 31 -13 58 -13 25 0 118 -7 205 -16 186 -19 175 -24 201 87 11 51 13 75 5
89 -6 11 -14 19 -18 19 -4 -1 -43 -5 -87 -10z m57 -73 c-2 -15 -7 -39 -13 -53
-9 -25 -11 -26 -82 -19 -40 4 -118 11 -175 16 -57 4 -106 11 -109 14 -3 3 -3
11 0 19 5 13 51 20 332 51 45 4 50 1 47 -28z"/>
<path d="M1168 1734 c-3 -3 -93 -27 -199 -53 l-194 -48 0 -85 c0 -97 13 -123
52 -113 31 7 362 168 385 186 16 13 16 19 5 58 -12 40 -37 68 -49 55z m2 -72
c0 -12 -43 -38 -156 -92 -213 -102 -191 -99 -200 -34 -3 30 -5 56 -3 58 7 4
323 83 342 84 10 1 17 -5 17 -16z"/>
<path d="M3084 1604 c-22 -28 -25 -40 -17 -52 19 -32 229 -164 373 -235 80
-39 147 -75 148 -79 14 -33 75 21 118 104 20 39 10 52 -59 81 -119 50 -529
217 -533 217 -1 0 -15 -16 -30 -36z m315 -129 c139 -57 256 -107 259 -109 2
-3 -6 -21 -18 -41 -17 -28 -27 -34 -44 -30 -49 14 -271 131 -369 196 -100 65
-125 89 -94 89 6 0 126 -47 266 -105z"/>
<path d="M1139 1423 c-74 -38 -180 -100 -237 -138 -56 -39 -116 -77 -133 -87
-44 -24 -44 -22 -19 -80 28 -65 57 -108 74 -108 8 0 119 81 247 181 129 100
243 187 254 195 18 13 18 16 4 56 -10 28 -23 44 -35 46 -11 2 -81 -28 -155
-65z m146 -3 c-8 -13 -431 -339 -447 -345 -9 -4 -20 8 -31 30 -9 20 -17 37
-17 39 0 10 145 110 240 167 162 96 277 145 255 109z"/>
<path d="M2942 1397 c-36 -37 -41 -71 -13 -86 10 -6 74 -70 141 -143 68 -73
128 -134 134 -136 21 -5 156 97 156 118 0 12 -20 34 -52 58 -58 42 -325 222
-331 222 -2 0 -17 -15 -35 -33z m236 -155 c67 -47 122 -88 122 -92 0 -10 -79
-62 -88 -58 -4 2 -62 60 -129 129 -93 95 -120 128 -111 137 14 14 31 4 206
-116z"/>
<path d="M1339 1212 c-46 -59 -108 -135 -137 -170 -53 -63 -54 -63 -36 -90 36
-58 86 -112 102 -112 11 0 54 64 130 195 61 107 112 201 112 209 0 13 -40 49
-76 69 -7 4 -47 -39 -95 -101z m113 19 c-1 -7 -44 -85 -95 -172 l-92 -160 -28
33 c-15 18 -26 36 -25 40 2 5 50 69 108 143 63 80 111 133 120 131 8 -1 14 -8
12 -15z"/>
<path d="M2689 1186 c-29 -63 108 -173 151 -121 11 13 9 23 -6 56 -35 78 -122
117 -145 65z"/>
<path d="M1637 1132 c-25 -27 -43 -107 -31 -139 15 -44 56 -43 84 2 27 43 36
105 21 134 -14 26 -52 28 -74 3z"/>
<path d="M2447 1059 c-21 -11 -36 -26 -34 -32 14 -32 145 -364 150 -379 7 -21
43 -22 127 -5 36 8 56 17 58 28 2 14 -189 359 -220 397 -14 17 -37 15 -81 -9z
m152 -203 c98 -169 99 -176 35 -176 -31 0 -31 1 -98 167 -50 126 -63 168 -54
174 17 11 12 18 117 -165z"/>
<path d="M1933 1038 c-6 -7 -18 -47 -28 -88 -10 -41 -35 -129 -56 -195 -26
-81 -35 -123 -28 -131 13 -16 114 -64 149 -71 21 -4 31 0 38 13 8 16 31 278
35 412 2 42 1 44 -38 58 -50 17 -60 17 -72 2z m62 -147 c-8 -120 -24 -284 -29
-288 -6 -6 -96 40 -96 49 0 7 85 306 95 335 2 7 12 10 20 6 14 -5 16 -19 10
-102z"/>
<path d="M2195 1010 c-16 -25 -26 -301 -16 -444 5 -83 9 -162 8 -176 -2 -29
22 -37 121 -39 49 -1 64 2 69 15 9 25 -76 637 -90 646 -17 11 -85 10 -92 -2z
m94 -272 c18 -128 35 -258 38 -288 l5 -55 -45 3 c-55 5 -53 0 -63 222 -8 184
2 350 20 350 9 0 23 -69 45 -232z"/>
<path d="M2872 968 c-29 -29 6 -83 50 -76 17 2 24 10 26 33 5 44 -46 73 -76
43z"/>
<path d="M1531 866 c-17 -20 -10 -66 11 -80 26 -16 60 19 56 58 -2 25 -8 32
-29 34 -14 2 -31 -4 -38 -12z"/>
<path d="M2974 816 c-11 -28 1 -51 27 -54 33 -4 43 18 23 47 -17 24 -42 28
-50 7z"/>
<path d="M1468 709 c-22 -12 -23 -42 -3 -59 21 -18 47 5 43 38 -3 29 -16 36
-40 21z"/>
</g>
</svg>
