<?xml version="1.0" standalone="no"?>
<!DOCTYPE svg PUBLIC "-//W3C//DTD SVG 20010904//EN"
 "http://www.w3.org/TR/2001/REC-SVG-20010904/DTD/svg10.dtd">
<svg version="1.0" xmlns="http://www.w3.org/2000/svg"
 width="402.000000pt" height="398.000000pt" viewBox="0 0 402.000000 398.000000"
 preserveAspectRatio="xMidYMid meet">

<g transform="translate(0.000000,398.000000) scale(0.100000,-0.100000)"
fill="#000000" stroke="none">
<path d="M1660 3615 c0 -89 74 -358 134 -490 36 -77 60 -105 77 -88 13 13 36
268 41 448 l3 129 -40 7 c-22 4 -79 10 -127 14 l-88 8 0 -28z m155 -25 c22 0
45 -4 52 -8 8 -5 9 -47 3 -162 -13 -225 -21 -303 -30 -294 -30 33 -130 360
-130 426 0 31 20 50 45 44 11 -3 38 -6 60 -6z"/>
<path d="M2627 3562 c-61 -68 -186 -436 -187 -550 0 -64 23 -53 115 53 117
134 275 334 275 348 0 10 -160 157 -179 165 -4 1 -15 -6 -24 -16z m107 -110
c32 -29 44 -47 38 -55 -85 -114 -272 -337 -282 -337 -9 0 24 133 55 225 27 80
84 199 102 212 19 15 27 11 87 -45z"/>
<path d="M2122 3507 c-6 -7 -12 -90 -14 -207 l-3 -195 23 0 c20 0 30 17 76
121 29 67 67 147 84 178 l32 56 -26 16 c-26 17 -114 44 -145 44 -9 0 -21 -6
-27 -13z m131 -56 c4 -4 -7 -36 -24 -72 -17 -35 -42 -88 -55 -116 -12 -29 -26
-53 -29 -53 -6 0 3 234 10 257 4 12 82 0 98 -16z"/>
<path d="M1270 3431 c-59 -19 -86 -32 -88 -44 -11 -55 310 -437 366 -437 15 0
22 6 22 19 0 22 -135 422 -156 463 -18 35 -32 34 -144 -1z m131 -79 c39 -103
109 -315 105 -319 -2 -2 -39 34 -82 80 -91 95 -188 232 -181 251 6 14 116 56
129 49 4 -2 17 -29 29 -61z"/>
<path d="M2873 3138 c-89 -109 -183 -238 -183 -253 0 -33 38 -21 171 56 76 44
155 87 174 95 19 8 35 18 35 22 0 30 -104 152 -129 152 -5 0 -35 -33 -68 -72z
m137 -57 c0 -9 -219 -135 -225 -129 -2 2 33 49 78 106 l82 103 33 -35 c17 -20
32 -40 32 -45z"/>
<path d="M1015 3120 c-52 -26 -95 -66 -95 -89 0 -10 60 -76 135 -150 190 -186
210 -178 114 46 -34 82 -65 162 -69 178 -7 38 -32 42 -85 15z m92 -150 c28
-66 48 -120 44 -120 -3 0 -46 40 -95 89 -55 55 -86 93 -81 101 7 12 65 50 76
50 3 0 28 -54 56 -120z"/>
<path d="M3174 2911 c-125 -82 -319 -256 -335 -300 -18 -47 3 -47 153 -1 184
57 379 127 392 140 11 11 5 40 -36 173 -15 50 -24 67 -38 67 -9 0 -71 -35
-136 -79z m126 5 c12 -16 52 -138 46 -144 -6 -5 -377 -128 -411 -136 -26 -5
-18 5 58 79 76 72 267 215 288 215 3 0 12 -6 19 -14z"/>
<path d="M645 2913 c-102 -92 -135 -125 -135 -133 0 -26 239 -161 390 -220
171 -66 229 -65 175 5 -43 57 -366 385 -379 385 -6 0 -29 -17 -51 -37z m357
-341 c-25 -8 -218 78 -349 156 -80 47 -81 64 -10 126 l52 46 159 -162 c88 -89
154 -164 148 -166z"/>
<path d="M1875 2901 c-152 -20 -314 -88 -439 -182 -197 -150 -326 -413 -326
-663 0 -386 253 -739 610 -854 96 -31 181 -44 295 -44 290 0 546 120 702 327
65 86 104 165 139 280 23 76 27 110 28 220 1 143 -15 228 -63 350 -112 278
-351 483 -641 549 -82 19 -227 27 -305 17z m320 -61 c324 -82 580 -365 640
-705 20 -116 19 -190 -5 -304 -78 -377 -403 -631 -812 -631 -166 0 -306 33
-427 102 -387 217 -547 703 -361 1094 169 354 579 543 965 444z"/>
<path d="M3240 2481 c-234 -83 -251 -91 -248 -115 3 -20 10 -21 153 -28 83 -3
174 -9 202 -12 50 -4 53 -3 59 21 15 59 -14 173 -43 172 -10 0 -65 -17 -123
-38z m124 -33 c3 -13 6 -35 6 -50 0 -27 -1 -28 -57 -27 -101 3 -209 15 -193
22 36 17 207 76 221 77 9 0 19 -10 23 -22z"/>
<path d="M572 2428 c-32 -41 -66 -146 -53 -166 3 -5 29 -14 56 -21 82 -18 327
-52 342 -47 35 14 9 43 -90 101 -56 33 -131 79 -166 102 -70 47 -74 49 -89 31z
m125 -102 c48 -30 97 -62 108 -70 20 -16 19 -16 -5 -11 -14 2 -73 12 -132 21
-77 12 -108 21 -108 31 0 23 28 83 39 83 5 0 49 -24 98 -54z"/>
<path d="M3320 2084 c-84 -7 -225 -25 -265 -36 -48 -12 -66 -25 -59 -43 8 -20
481 -175 535 -175 22 0 29 11 62 103 21 56 37 109 37 119 0 12 -12 18 -47 22
-74 8 -213 14 -263 10z m245 -60 c9 -13 6 -30 -13 -85 -14 -38 -28 -69 -32
-69 -8 0 -374 114 -410 128 -19 8 -21 11 -10 16 35 14 146 24 294 25 136 1
161 -1 171 -15z"/>
<path d="M357 1944 c-15 -64 -24 -121 -20 -127 18 -29 401 24 543 75 59 22 93
49 78 64 -16 16 -471 104 -537 104 l-37 0 -27 -116z m290 40 c109 -20 205 -40
213 -44 26 -15 -162 -61 -325 -80 -125 -14 -133 -13 -140 11 -6 17 5 87 20
137 6 17 9 16 232 -24z"/>
<path d="M2995 1743 c-4 -13 3 -25 26 -43 109 -83 247 -196 262 -214 l17 -21
35 39 c37 41 71 117 62 138 -5 14 -93 45 -257 89 -123 34 -136 35 -145 12z
m243 -83 c78 -23 112 -37 112 -48 0 -15 -38 -82 -46 -82 -5 0 -136 106 -183
148 -14 13 -19 22 -11 19 8 -2 66 -19 128 -37z"/>
<path d="M930 1606 c-3 -2 -66 -6 -140 -8 l-135 -4 2 -56 c2 -63 24 -125 48
-135 10 -3 85 28 192 81 136 67 174 90 171 104 -3 14 -16 18 -69 20 -35 2 -67
1 -69 -2z m30 -42 c0 -7 -221 -114 -237 -114 -9 0 -37 90 -29 97 1 1 56 6 121
11 66 5 126 10 133 11 6 0 12 -1 12 -5z"/>
<path d="M2835 1410 c-12 -19 328 -460 355 -460 23 0 202 130 198 145 -9 38
-227 192 -387 273 -100 50 -153 63 -166 42z m147 -76 c78 -40 216 -127 280
-178 69 -55 68 -70 -8 -120 -29 -20 -56 -36 -60 -36 -8 0 -29 26 -159 196 -63
82 -115 153 -115 157 0 11 7 9 62 -19z"/>
<path d="M1125 1363 c-150 -61 -415 -189 -415 -201 0 -17 81 -207 94 -220 27
-27 274 193 399 355 44 57 58 95 39 107 -4 2 -57 -16 -117 -41z m33 -55 c-36
-52 -187 -206 -255 -259 -37 -30 -67 -47 -76 -43 -12 4 -67 118 -67 139 0 9
390 193 413 194 5 1 -2 -14 -15 -31z"/>
<path d="M2682 1187 c-8 -9 -7 -25 3 -55 22 -62 84 -274 87 -297 7 -41 15 -45
64 -30 55 16 124 60 124 79 0 25 -235 316 -256 316 -6 0 -16 -6 -22 -13z m153
-196 c41 -52 75 -98 75 -102 0 -7 -80 -49 -93 -49 -4 0 -7 6 -7 14 0 8 -15 65
-34 126 -18 61 -30 109 -25 108 5 -2 42 -46 84 -97z"/>
<path d="M1413 1107 c-71 -64 -209 -174 -233 -187 -38 -20 -16 -66 61 -123 60
-45 68 -40 136 86 64 118 123 233 123 241 0 3 -9 10 -19 16 -16 8 -28 2 -68
-33z m-44 -154 c-67 -126 -72 -133 -84 -133 -18 0 -78 61 -69 70 21 19 197
160 201 160 3 0 -19 -44 -48 -97z"/>
<path d="M1734 1082 c-27 -18 -284 -464 -284 -494 0 -14 187 -138 209 -138 14
0 57 142 81 268 26 136 37 331 18 354 -7 10 -18 14 -24 10z m-13 -220 c-13
-107 -33 -213 -56 -291 -11 -36 -21 -51 -33 -51 -17 0 -132 67 -132 76 0 15
136 262 199 359 33 52 37 35 22 -93z"/>
<path d="M2353 1073 c-26 -9 -8 -568 18 -584 8 -5 65 -9 127 -9 91 0 114 3
118 15 8 21 -59 241 -106 349 -46 104 -114 222 -132 228 -7 3 -19 3 -25 1z
m85 -175 c76 -154 137 -334 120 -355 -7 -8 -37 -13 -83 -13 l-73 0 -5 33 c-12
65 -20 417 -10 417 5 0 28 -37 51 -82z"/>
<path d="M2085 980 c-3 -4 -30 -82 -61 -172 -31 -89 -60 -167 -65 -173 -16
-16 -10 -31 18 -44 40 -18 114 -30 147 -24 l29 6 -6 141 c-10 218 -16 263 -38
269 -11 3 -21 1 -24 -3z m24 -297 l1 -73 -32 0 c-55 0 -80 11 -72 29 3 9 22
59 41 111 18 52 37 102 40 110 8 19 20 -81 22 -177z"/>
</g>
</svg>
